<?xml version="1.0" encoding="utf-8"?>
<svg
  version="1.1"
  xmlns="http://www.w3.org/2000/svg"
  xmlns:xlink="http://www.w3.org/1999/xlink"
  x="0px"
  y="0px"
  viewBox="0 0 512 512"
  xml:space="preserve">
  <path d="M394.9,156.1c0-47.8-29.4-89.5-72.8-110.8l23.8-41.5c0,0,1.1-2.2-1-3.4c-2.1-1.2-3.6,0.9-3.6,0.9l-24.2,41.8
    c-18.4-8.2-39.2-12.8-61.1-12.8s-42.7,4.6-61.1,12.8L170.7,1.3c0,0-1.4-2.1-3.5-0.9c-2.2,1.2-1.1,3.4-1.1,3.4h0L190,45.3
    c-43.4,21.3-72.8,63-72.8,110.8H256H394.9z M322,84.1c7.3,0,13.2,5.9,13.2,13.2c0,7.3-5.9,13-13.2,13c-7.3,0-13.2-5.8-13.2-13
    C308.8,90.1,314.8,84.1,322,84.1z M190,110.4c-7.3,0-13.2-5.8-13.2-13c0-7.3,5.9-13.2,13.2-13.2c7.3,0,13.2,5.9,13.2,13.2
    C203.2,104.6,197.2,110.4,190,110.4z M116,172.3h280V383c0,10.5-12.6,24.1-23.1,24.1H340V479c0,18.3-13.5,33-30.1,33
    S280,497.3,280,479v-71.8H232V479c0,18.3-13.3,33-29.9,33c-16.6,0-29.9-14.7-29.9-33v-71.8h-33c-10.5,0-23.1-13.7-23.1-24.1V172.3z
     M99.9,200.9v125c0,18.2-13.4,33-29.9,33S40,344.1,40,325.9v-125c0-18.2,13.4-33,29.9-33S99.9,182.6,99.9,200.9z M472,200.9v125
    c0,18.2-13.4,33-29.9,33c-16.5,0-29.9-14.8-29.9-33v-125c0-18.2,13.4-33,29.9-33C458.6,167.9,472,182.6,472,200.9z"/>
</svg>
