<?xml version="1.0" encoding="utf-8"?>
<svg
  version="1.1"
  xmlns="http://www.w3.org/2000/svg"
  xmlns:xlink="http://www.w3.org/1999/xlink"
  x="0px"
  y="0px"
  viewBox="0 0 23 23"
  xml:space="preserve">
  <path d="M4.362,11.293c0.884,1.576,2.59,2.556,5.467,2.828c-0.411,0.306-0.904,0.886-0.972,1.558
    c-0.516,0.328-1.554,0.436-2.362,0.186c-1.131-0.351-1.564-2.548-3.258-2.235c-0.367,0.068-0.294,0.305,0.023,0.507
    c0.516,0.328,1.002,0.738,1.377,1.611c0.288,0.671,0.893,1.869,2.806,1.869c0.759,0,1.291-0.089,1.291-0.089
    s0.015,1.711,0.015,2.376c0,0.767-1.055,0.984-1.055,1.352c0,0.146,0.349,0.16,0.63,0.16c0.555,0,1.709-0.454,1.709-1.252
    c0-0.634,0.01-2.764,0.01-3.136c0-0.815,0.445-1.073,0.445-1.073s0.055,4.349-0.106,4.932c-0.19,0.685-0.532,0.588-0.532,0.894
    c0,0.455,1.389,0.111,1.85-0.887c0.356-0.777,0.2-5.044,0.2-5.044l0.38-0.008c0,0,0.021,1.953,0.009,2.846
    c-0.013,0.924-0.077,2.094,0.482,2.645c0.367,0.362,1.559,0.998,1.559,0.417c0-0.338-0.653-0.616-0.653-1.53v-4.207
    c0.521,0,0.443,1.383,0.443,1.383l0.038,2.57c0,0-0.115,0.936,1.032,1.329c0.405,0.139,1.271,0.176,1.311-0.057
    c0.041-0.234-1.043-0.581-1.053-1.307c-0.006-0.442,0.02-0.7,0.02-2.623c0-1.922-0.263-2.633-1.18-3.199
    c2.829-0.285,4.58-0.972,5.433-2.812c0.067,0.002,0.347-0.859,0.311-0.859c0.191-0.694,0.295-1.516,0.315-2.488
    c-0.005-2.638-1.291-3.57-1.539-4.008c0.364-1.997-0.061-2.906-0.258-3.217c-0.729-0.255-2.536,0.654-3.523,1.295
    c-1.61-0.462-5.011-0.417-6.287,0.119c-2.351-1.653-3.596-1.4-3.596-1.4S4.339,2.155,4.931,4.226
    C4.157,5.195,3.58,5.88,3.58,7.697c0,1.023,0.123,1.94,0.4,2.739C3.945,10.437,4.351,11.293,4.362,11.293z"/>
</svg>
