<?xml version="1.0" encoding="utf-8"?>
<svg
  version="1.1"
  xmlns="http://www.w3.org/2000/svg"
  xmlns:xlink="http://www.w3.org/1999/xlink"
  x="0px"
  y="0px"
  viewBox="0 0 512 512"
  xml:space="preserve">
  <path d="M319.391,247.106c1.474,21.728-0.629,43.673-6.709,64.533c-7.395,25.489-21.408,49.16-40.987,67.173
    c-18.528,17.053-41.765,28.803-66.305,34.461c-27.146,6.184-55.858,6.355-82.832-0.869c-21.408-5.658-41.502-15.922-58.818-29.672
    c-18.276-14.527-33.409-33.147-43.936-54.029C3.618,296.688-1.342,259.187,5.79,224.029c2.869-14.184,7.567-27.843,14.093-40.725
    c18.711-37.33,52.292-66.819,91.702-80.306c34.975-12.093,74.214-11.83,109.018,0.96c19.316,7.132,36.976,18.276,52.12,32.278
    c-0.011,0.011-0.034,0.034-0.046,0.046c0.011,0.011,0.034,0.023,0.046,0.034c-5.052,5.486-10.527,10.618-15.75,15.922
    c-9.921,9.921-19.842,19.842-29.752,29.752c-9.83-9.395-21.842-16.619-34.895-20.539c-15.316-4.618-31.844-5.223-47.502-1.909
    c-18.356,3.92-35.33,13.487-48.371,26.883c-10.595,10.767-18.585,23.877-23.454,38.107c-6.904,20.231-6.892,42.69,0.046,62.83
    c-0.046,0.034-0.091,0.069-0.137,0.103c0.023,0.057,0.034,0.103,0.046,0.16c0.526,1.566,1.337,3.006,1.943,4.538
    c7.155,17.945,19.214,33.855,35.032,44.965c10.79,7.567,23.145,12.961,36.027,15.579c12.699,2.606,25.843,2.263,38.633,0.091
    c12.699-2.263,24.974-6.869,35.673-14.093c0.023,0.011,0.034,0.034,0.057,0.046c16.916-11.384,28.883-29.775,32.289-49.903
    c-29.375,0-58.749,0-88.124,0c0-0.034,0-0.057,0-0.091c-0.034,0-0.057,0-0.091,0c0.091-21.054,0.091-42.108,0.091-63.173
    c50.726,0,101.543,0,152.268,0c0.023,0.16,0.034,0.309,0.057,0.469c1.223,6.961,2.08,13.99,2.56,21.042
    C319.391,247.094,319.391,247.094,319.391,247.106z M463.146,225.301v-46.254h-45.839v46.254h-46.254v45.839h46.254v46.254h45.839
    v-46.254H509.4v-45.839H463.146z"/>
</svg>
