<?xml version="1.0" encoding="utf-8"?>
<svg
  version="1.1"
  xmlns="http://www.w3.org/2000/svg"
  xmlns:xlink="http://www.w3.org/1999/xlink"
  x="0px"
  y="0px"
  viewBox="0 0 512 512"
  xml:space="preserve">
  <path d="M277.5,255.6c0,38.4-18.9,68.7-52.4,68.7c-33.4,0-52.8-29.7-52.8-67.2c0-37.9,18.3-68.7,52.8-68.7
  C259.8,188.4,277.5,221.1,277.5,255.6z M512,149.8v212.3c0,28.2-24,51.4-53.2,51.4H53.3C24,413.5,0,390.4,0,362.1V149.8
  c0-28.3,24-51.3,53.3-51.3h405.5C488,98.5,512,121.6,512,149.8z M106.5,215.7H71.8v132.5h34.7V215.7z M108.8,178.7
  c-0.3-10.4-7.6-18.2-19.5-18.2c-11.5,0-19.4,7.8-19.4,18.2c0,9.8,7.7,18,19.2,18C101.2,196.7,108.8,188.4,108.8,178.7z M314.3,254.5
  c0-52.4-32.8-93.1-88-93.1c-53.7,0-90.7,39.7-90.7,96.4c0,53.6,33.8,93.3,87.8,93.3C275.6,351.2,314.3,316,314.3,254.5z M459.4,296
  c0-26.4-15.8-42.4-48.8-54.5c-25.5-9.5-36.5-15.9-36.5-30.1c0-11,9.3-22.2,31.4-22.2c17.8,0,31,5.3,38.1,8.8l8.3-26.9
  c-9.9-4.9-24.9-9.2-45.5-9.2c-41.6,0-67.6,22.5-67.6,52.8c0,26.3,20.1,42.5,51.7,53.3c23.9,8.4,33.5,16.5,33.5,30.5
  c0,15-12.4,25-34.4,25c-17.8,0-35-5.4-46.1-11.7l-8,27.7c10.6,6.2,31.4,11.7,51.8,11.7C436.3,351.2,459.4,325.7,459.4,296z"/>
</svg>
