<?xml version="1.0" encoding="utf-8"?>
<svg
  version="1.1"
  xmlns="http://www.w3.org/2000/svg"
  xmlns:xlink="http://www.w3.org/1999/xlink"
  x="0px"
  y="0px"
  viewBox="0 0 23 23"
  xml:space="preserve">
  <path d="M3.438,19.998h3.528V8.093H3.438V19.998z M5.191,2.669c-1.176,0-2.04,0.744-2.04,1.824s0.864,1.848,2.04,1.848
    c1.2,0,2.04-0.768,2.04-1.848S6.391,2.669,5.191,2.669z M16.495,7.805c-1.608,0-2.808,0.84-3.816,1.8h-0.096l-0.24-1.512h-2.88
    v11.905h3.528v-8.041c0.768-0.744,1.32-1.152,2.208-1.152c1.008,0,1.464,0.528,1.464,2.256v6.937h3.528v-7.393
    C20.191,9.629,19.087,7.805,16.495,7.805z"/>
</svg>
