<?xml version="1.0" encoding="utf-8"?>
<svg
  version="1.1"
  xmlns="http://www.w3.org/2000/svg"
  xmlns:xlink="http://www.w3.org/1999/xlink"
  x="0px"
  y="0px"
  width="512"
  height="512"
  viewBox="0 0 512 512"
  xml:space="preserve">
  <g transform="translate(192 48)">
    <path d="M301,360.8c-0.1-21.8-15.4-22.3-33.7-29.7L182,296.9c-1.5-0.6-3-1.2-4.4-1.8v0c-15.2-6.9-28.6-16.4-33.5-23.2
      l-0.2-0.2l-0.1-0.1c-0.3-0.4-0.6-0.9-0.8-1.3l-0.2-0.4l0-0.1l-0.2-0.2v0c-2.3-3.4-4.6-4.9-6.5-4.3l-0.1,0.1l-0.1,0l0,0l-0.1,0.1
      l-0.1,0l-0.1,0.1c-2.3,1.2-1.8-0.1-2.8-2.6c-2.3-6.2-6.1-18.1-6.7-19.9c-0.9-3.3-3.3,5.1-2.7-3.9l1-16.4c1.6-1.7,2.8-3.1,3.7-4
      c5.6-6.4,5.9-23.2,8.7-27.3c2.8-4.1,8.4-5,13.9-24.1c5.6-19.1,12.4-46.3,5.2-46.8c-1.8-0.1-3.7,1-5.8,2.8c1.3-7,3.9-22.9,4.5-34.6
      c0.8-15.5-1.8-55.1-10.5-69.5c-5.5-9.1-16.6-18.1-27.6-25.1c-6.6-4.2-13.2-7.7-18.6-10.1c-16.1-7.1-66.8-3.9-84,0
      c-19.5,4.4-33.3,16.6-42,31.2C-36.9,30-40.7,73.5-40,89c0.4,6.9,4.5,18.6,5.6,25.8c0.6,3.7,1.2,3.8,1.6,6.4
      c-0.7-0.3-1.4-0.4-2.1-0.4c-7.2,0.5-0.4,27.7,5.2,46.8c5.6,19.1,11.1,20,13.9,24.1c2.8,4.1,3.2,20.9,8.8,27.3
      c0.9,1,2.2,2.5,3.9,4.2l1.1,13.4l1.9,7.4c-0.9-2.1-2.6-3.5-3.3-0.7c-2.4,7.3-4.8,14.6-7.2,21.9c-0.3-0.3-0.6-0.6-1.1-0.6
      c-2.3-2-5.5-0.3-8.3,4.5c-4.2,7-18.2,17.2-34.3,24.4l-0.2,0.9l-0.2,0.9l-0.1,0.4c-1.3,0.6-2.6,1.1-3.9,1.6l-85.3,34.2
      c-18.3,7.3-33.6,7.8-33.7,29.7l-14.1,74.3h512L301,360.8L301,360.8z"/>
    </g>
</svg>
