<?xml version="1.0" encoding="utf-8"?>
<svg
  version="1.1"
  xmlns="http://www.w3.org/2000/svg"
  xmlns:xlink="http://www.w3.org/1999/xlink"
  x="0px"
  y="0px"
  width="512"
  height="512"
  viewBox="0 0 512 512"
  xml:space="preserve">
  <path d="M504.4,464L378.9,338.5c25.6-34.8,40.8-77.7,40.8-124.2c0-115.7-94.1-209.8-209.8-209.8C94.2,4.5,0,98.6,0,214.3
  C0,330,94.2,424.1,209.9,424.1c50.5,0,96.9-17.9,133.1-47.8l124.5,124.5c5.1,5.1,11.8,7.6,18.4,7.6s13.3-2.5,18.4-7.6
  C514.6,490.7,514.6,474.2,504.4,464z M52.2,214.3c0-87,70.7-157.7,157.7-157.7s157.7,70.7,157.7,157.7c0,41-15.7,78.3-41.4,106.4
  c-0.3,0.3-0.7,0.6-1,0.9c-0.7,0.7-1.3,1.4-1.9,2.2c-28.7,29.7-68.9,48.2-113.4,48.2C122.9,372,52.2,301.3,52.2,214.3z"/>
</svg>
