<?xml version="1.0" encoding="utf-8"?>
<!-- Generator: Adobe Illustrator 19.2.1, SVG Export Plug-In . SVG Version: 6.00 Build 0)  -->
<svg version="1.1" id="Layer_1" xmlns="http://www.w3.org/2000/svg" xmlns:xlink="http://www.w3.org/1999/xlink" x="0px" y="0px"
	 viewBox="0 0 512 512" style="enable-background:new 0 0 512 512;" xml:space="preserve">
<path d="M386.8,396.8c-13.5,0-25.8,4.9-35.3,13.1L127.7,270c1.4-4.7,2.1-9.7,2.1-14.9c0-5.2-0.7-10.2-2.1-14.9l223.8-139.9
	c9.5,8.1,21.8,13.1,35.3,13.1c29.9,0,54.3-24.3,54.3-54.3S416.7,4.8,386.8,4.8s-54.3,24.3-54.3,54.3c0,5.6,0.9,11,2.5,16.1
	L111.8,214.7c-9.6-8.6-22.3-13.9-36.2-13.9c-29.9,0-54.3,24.3-54.3,54.3s24.3,54.3,54.3,54.3c13.9,0,26.6-5.3,36.2-13.9L335,434.9
	c-1.6,5.1-2.5,10.5-2.5,16.1c0,29.9,24.3,54.3,54.3,54.3S441,480.9,441,451S416.7,396.8,386.8,396.8z M386.8,34.8
	c13.4,0,24.3,10.9,24.3,24.3c0,13.4-10.9,24.3-24.3,24.3s-24.3-10.9-24.3-24.3C362.5,45.7,373.4,34.8,386.8,34.8z M75.5,279.3
	c-13.4,0-24.3-10.9-24.3-24.3s10.9-24.3,24.3-24.3c13.4,0,24.3,10.9,24.3,24.3S88.9,279.3,75.5,279.3z M386.8,475.3
	c-13.4,0-24.3-10.9-24.3-24.3s10.9-24.3,24.3-24.3S411,437.6,411,451S400.2,475.3,386.8,475.3z"/>
</svg>
