<?xml version="1.0" encoding="utf-8"?>
<svg
  version="1.1"
  xmlns="http://www.w3.org/2000/svg"
  xmlns:xlink="http://www.w3.org/1999/xlink"
  x="0px"
  y="0px"
  viewBox="0 0 23 23"
  xml:space="preserve">
	<path d="M15.141,2.526c2.06-0.06,2.811,0.564,3.904,1.397c0.94-0.322,1.88-0.645,2.819-0.967c-0.44,1.084-1.053,1.577-1.735,2.364
		c0.795-0.215,1.59-0.43,2.386-0.645c-0.606,0.85-1.388,1.686-2.277,2.256c0.129,6.779-3.729,11.013-8.783,12.678
		c-3.364,1.108-8.668,0.442-10.627-1.504c2.715,0.087,5.199-0.401,6.398-1.827c-2.019-0.084-3.666-1.386-4.012-3.116
		c0.036,0,0.072,0,0.108,0c0.481,0.157,1.284,0.17,1.627-0.107c-2.014-0.381-2.993-1.728-3.253-3.868
		c0.036-0.036-0.036-0.394,0-0.43c0.577,0.18,1.155,0.359,1.734,0.538c0-0.036,0-0.072,0-0.107C2.881,8.586,2.26,8.063,1.911,7.254
		C1.369,5.992,1.683,3.793,2.345,3.386c1.503,2.306,5.598,4.315,9,4.62c0.036-0.072,0.072-0.143,0.108-0.215
		C10.852,4.634,13.265,2.748,15.141,2.526z"/>
</svg>
