<?xml version="1.0" encoding="utf-8"?>
<svg
  version="1.1"
  xmlns="http://www.w3.org/2000/svg"
  xmlns:xlink="http://www.w3.org/1999/xlink"
  x="0px"
  y="0px"
  width="512"
  height="512"
  viewBox="0 0 512 512"
  xml:space="preserve">
  <path d="M255.3,0.3c-141.2,0-256,114.8-256,256c0,141.1,114.8,256,256,256c141.1,0,256-114.8,256-256
  C511.3,115.1,396.4,0.3,255.3,0.3z M423.4,347.9v-11l-2.8-11.1l-7.6-15.7l-12.3-14.8h-18l-16.1-5.5l-12.3-19.4l-19.9-15.7l-8.5-17.5
  h-20.9l-29.4-5.5l-8.5,2.8l-12.3,13.9l-10.4,7.4l-4.7,35.1c0,0,0,37.9,0,41.6s5.7,11.1,10.4,18.5c4.7,7.4,7.6,15.7,11.4,20.3
  c3.8,4.6,8.5,4.6,15.2,7.4c6.6,2.8,13.3,9.2,16.1,13.9c2.8,4.6,4.7,22.2,4.7,22.2l3.5,28.2c-14.6,3.6-29.6,6-45.3,6
  c-106.1,0-192.4-86.3-192.4-192.4c0-42.2,14.1-80.9,37.2-112.7l4.2,3.1l5.7,12l0.9,16.6l-0.9,19.4l14.2,0.9l15.2,5.5
  c0,0,12.3,3.7,16.1,7.4c3.8,3.7,24.7,16.6,27.5,21.2c2.8,4.6,17.1,4.6,17.1,4.6c11.4-9.2,0-22.2,0-22.2l-4.7-11.1l-3.8-11.1
  l1.9-12.9l7.6-12l0.9-14.8l19-7.4h40.8l12.3-11.1l7.6-21.2l20.9-11.1l27.5-19.4l0.1-1c68.8,29.3,117.2,97.6,117.2,177.1
  C447.7,289.7,438.4,320.6,423.4,347.9z"/>
</svg>
