<svg xmlns="http://www.w3.org/2000/svg" viewBox="0 0 76 81.18"><defs><style>.a{fill:#fff;}</style></defs><title>symbol</title><path class="a" d="M114.54,297.27h0v40.61a3.13,3.13,0,0,1-1.41,2.45l-1.33.77-10.12,5.84-6.84,3.95-1.41.82V307.83l-38-21.94,18-10.42,1.65-1a3.14,3.14,0,0,1,2.83,0L103,289l11.54,6.67v1.63ZM85,312.7l-7.79-4.5L58.95,297.67a3.15,3.15,0,0,0-2.83,0L39.95,307l-1.41.82L66,323.67v31.69L82.14,346l1.42-.82A3.14,3.14,0,0,0,85,342.76V312.7ZM38.54,339.52l19,11V328.55Z" transform="translate(-38.54 -274.18)"/></svg>